/* XPM */
static char *_959_9bbdaa9b2d98ee1aaba6798117117b42464b9e9d0508bfadf6f366de5fe470f9[] = {
/* columns rows colors chars-per-pixel */
"80 64 248 2 ",
"   c #176F3E",
".  c #1B2159",
"X  c #1D3859",
"o  c #27315B",
"O  c #1F3665",
"+  c #1D2765",
"@  c #252C6A",
"#  c #2B336C",
"$  c #2A3B6B",
"%  c #232D78",
"&  c #29377A",
"*  c #353C76",
"=  c #363D67",
"-  c #121B56",
";  c #134253",
":  c #18524B",
">  c #2A475A",
",  c #225556",
"<  c #1E6C51",
"1  c #2B6959",
"2  c #277A59",
"3  c #2D6F55",
"4  c #355869",
"5  c #394777",
"6  c #304A6C",
"7  c #386967",
"8  c #346D6F",
"9  c #1E4161",
"0  c #507858",
"q  c #454C79",
"w  c #475779",
"e  c #474C72",
"r  c #47676C",
"t  c #4B7A6B",
"y  c #446477",
"u  c #4A7879",
"i  c #5B746C",
"p  c #667A72",
"a  c #12962A",
"s  c #159B2D",
"d  c #199A2E",
"f  c #1C9C33",
"g  c #199932",
"h  c #198C2D",
"j  c #248A36",
"k  c #238B3A",
"l  c #28863B",
"z  c #27923C",
"x  c #3A813B",
"c  c #19A234",
"v  c #22A53C",
"b  c #298845",
"n  c #328C47",
"m  c #36894B",
"M  c #279846",
"N  c #38954C",
"B  c #328E56",
"V  c #28A643",
"C  c #38A954",
"Z  c #3AB254",
"A  c #32A54A",
"S  c #358F6B",
"D  c #439358",
"F  c #478B5D",
"G  c #46A85C",
"H  c #42B65C",
"J  c #4B9B65",
"K  c #5A9A7A",
"L  c #528C6D",
"P  c #6E8E77",
"I  c #4AAD65",
"U  c #54A969",
"Y  c #4DB56A",
"T  c #49B263",
"R  c #54B56A",
"E  c #5BA978",
"W  c #5BB674",
"Q  c #66B97A",
"!  c #6DAE74",
"~  c #69994D",
"^  c #5CCA76",
"/  c #5AC973",
"(  c #64C87E",
")  c #6DCB7B",
"_  c #9EA23E",
"`  c #A3A23E",
"'  c #94A54B",
"]  c #BBC27F",
"[  c #D3CF58",
"{  c #C6C779",
"}  c #CCD36D",
"|  c #E5E876",
" . c #293484",
".. c #2C3B82",
"X. c #273988",
"o. c #333C85",
"O. c #2B3B92",
"+. c #2D3D9C",
"@. c #263A90",
"#. c #323C9C",
"$. c #2B4385",
"%. c #354986",
"&. c #395188",
"*. c #2C429B",
"=. c #2D4697",
"-. c #30449B",
";. c #334A98",
":. c #3A5597",
">. c #2E4AA3",
",. c #2C46A1",
"<. c #334DA5",
"1. c #3343A1",
"2. c #3352A4",
"3. c #3C5BA7",
"4. c #3E5BB0",
"5. c #444C86",
"6. c #485689",
"7. c #455D9A",
"8. c #535C8C",
"9. c #5B6588",
"0. c #4D738A",
"q. c #4A6699",
"w. c #566697",
"e. c #577796",
"r. c #517189",
"t. c #67799A",
"y. c #6B7091",
"u. c #465BA8",
"i. c #4564A8",
"p. c #5866A5",
"a. c #4968B4",
"s. c #556FB0",
"d. c #6674A7",
"f. c #6274B6",
"g. c #6C75AC",
"h. c #5878C2",
"j. c #598783",
"k. c #539784",
"l. c #53848D",
"z. c #658588",
"x. c #669B89",
"c. c #648A98",
"v. c #6A9897",
"b. c #768F95",
"n. c #5DAF88",
"m. c #67A686",
"M. c #6ABA89",
"N. c #6CA696",
"B. c #79AB97",
"V. c #6BB595",
"C. c #75B98E",
"Z. c #7686A7",
"A. c #7989B9",
"S. c #7290AD",
"D. c #79B5A3",
"F. c #5E81A1",
"G. c #6ECD8D",
"H. c #69C686",
"J. c #73C88B",
"K. c #78C599",
"L. c #79D996",
"P. c #6FD489",
"I. c #77D19C",
"U. c #6784C6",
"Y. c #7C91CE",
"T. c #5C82C9",
"R. c #929393",
"E. c #99AA9C",
"W. c #8CB593",
"Q. c #848AA8",
"!. c #8B94BA",
"~. c #949BBC",
"^. c #8391B0",
"/. c #97B3B9",
"(. c #90ABAE",
"). c #ACB3AE",
"_. c #82CD94",
"`. c #86CB9A",
"'. c #8CD496",
"]. c #87D79A",
"[. c #95CE94",
"{. c #ACD08E",
"}. c #89D6A8",
"|. c #96D8B7",
" X c #91CDA9",
".X c #AAD1B0",
"XX c #9BECB6",
"oX c #90E8A9",
"OX c #A8EBB6",
"+X c #ABEBBA",
"@X c #A9E6B9",
"#X c #B5E8B2",
"$X c #87E49E",
"%X c #D6EA90",
"&X c #E4F592",
"*X c #D5F1B8",
"=X c #E4FAB7",
"-X c #C3DC8B",
";X c #8D95C7",
":X c #9399C7",
">X c #8A97D3",
",X c #9AA5C7",
"<X c #93A8D3",
"1X c #A5A9C8",
"2X c #A8B3CC",
"3X c #B7BACC",
"4X c #A4AAD4",
"5X c #AAB6D6",
"6X c #B5BAD8",
"7X c #96A7E3",
"8X c #8AA6E8",
"9X c #B4BCE3",
"0X c #A4B3E3",
"qX c #9DC5D6",
"wX c #BCDBCC",
"eX c #BAC6D8",
"rX c #B6D2D2",
"tX c #B6E5C7",
"yX c #BDF8D3",
"uX c #AEF0CA",
"iX c #B9C6E8",
"pX c #BAC6F2",
"aX c #B9C8F5",
"sX c #BFD3EC",
"dX c #C6C9DB",
"fX c #C6D3D9",
"gX c #C5C8C8",
"hX c #CBF1D7",
"jX c #C6CCE6",
"kX c #CCD3E7",
"lX c #D3D7E9",
"zX c #CAD6F9",
"xX c #D6DCF7",
"cX c #C4CDF7",
"vX c #DCE4FD",
"bX c #D9E3F7",
"nX c #DAF2FD",
"mX c #CCF5E5",
"MX c #FFFFEA",
"NX c #E3EAFE",
"BX c #E4E7FB",
"VX c #E5F3FE",
"CX c #EAFAFD",
"ZX c #F1FFF5",
"AX c #F4FEFB",
"SX c #FEFFFF",
"DX c #F9FCF4",
"FX c #ECF5ED",
/* pixels */
"SXSXSXSXSXSXSXSXSXSXSXSXSXSXSXSXSXSXSXSXSXSXSXSXSXSXSXSXDXSXCXBXSXNXzXiX9X9X9XaXsX5X5X9X9XjXxXNXCXSXSXSXSXSXSXSXSXSXSXSXSXSXSXSXSXSXSXSXSXSXSXSXSXSXSXSXSXSXSXSX",
"SXSXSXSXSXSXSXSXSXSXSXSXSXSXSXSXSXSXSXSXSXSXSXSXSXSXSXSXSX3X~.!.^.d.5.%.q * 5 6.&.&.&.5 5.6.d.A.:X2XkXSXSXSXSXSXSXSXSXSXSXSXSXSXSXSXSXSXSXSXSXSXSXSXSXSXSXSXSXSX",
"SXSXSXSXSXSXSXSXSXSXSXSXSXSXSXSXSXSXSXSXSXSXSXSXSXSXSXSXBXe #  . . . . .X.X.;.U.U.:.X.X... . . .% @ 9.DXSXSXSXSXSXSXSXSXSXSXSXSXSXSXSXSXSXSXSXSXSXSXSXSXSXSXSXSX",
"SXSXSXSXSXSXSXSXSXSXSXSXSXSXSXSXSXSXSXSXSXSXSXSXSXSXSXSXBX* o.#.#.#.#.u.a.h.f.T.h.4.*.+.#.+.#.#.#. .5.SXSXSXSXSXSXSXSXSXSXSXSXSXSXSXSXSXSXSXSXSXSXSXSXSXSXSXSXSX",
"SXSXSXSXSXSXSXSXSXSXSXSXSXSXSXSXSXSXSXSXSXSXSXSXSXSXDXSX9X% O.-.4.a.#.+.*.u.h.a.3.2.=.*.+.+.<.,.#.#.* xXSXSXSXSXSXSXSXSXSXSXSXSXSXSXSXSXSXSXSXSXSXSXSXSXSXSXSXSX",
"SXSXSXSXSXSXSXSXSXSXSXSXSXSXSXSXSXSXSXSXSXSXSXSXSXSXAXSX;X% -.,.4.a.*.@.@.<.a.a.3.2.=.*.*.+.>.>.=.#.& pXSXSXSXSXSXSXSXSXSXSXSXSXSXSXSXSXSXSXSXSXSXSXSXSXSXSXSXSX",
"SXSXSXSXSXSXSXSXSXSXSXSXSXSXSXSXSXSXSXSXSXSXSXSXSXSXSXSX>X% #.-.4.a.=.O.=.>.a.a.3.2.=.+.@.*.>.>.+.-.& pXSXSXSXSXSXSXSXSXSXSXSXSXSXSXSXSXSXSXSXSXSXSXSXSXSXSXSXSX",
"SXSXSXSXSXSXSXSXSXSXSXSXSXSXSXSXSXSXSXSXSXSXSXSXSXSXDXSX:X .#.=.4.a.=.@.@.:.a.i.:.=.X.-.s.=.<.>.*.=...pXAXSXSXSXSXSXSXSXSXSXSXSXSXSXSXSXSXSXSXSXSXSXSXSXSXSXSXSX",
"SXSXSXSXSXSXSXSXSXSXSXSXSXSXSXSXSXSXSXDXSXSXSXSXSXSXSXSX;X5.f.3.2.4.O.@.O.O.i.7.&.&.t.9X7X .2.>.,.-. .aXSXDXSXSXSXSXSXSXSXSXSXSXSXSXSXSXSXSXSXSXSXSXSXSXSXSXSXSX",
"SXSXSXSXSXSXSXSXSXSXSXSXSXSXSXSXSXSXSXSXSXSXSXSXSXSXSXAX;X& u.U.8XY.u.;.O.:.f.Y.<XaXkXxXY.X.<.-.,.-...aXSXDXSXSXSXSXSXDXSXSXSXSXSXSXSXSXSXSXSXSXSXSXSXSXSXSXSXSX",
"SXSXSXSXSXSXSXSXSXSXSXSXSXSXSXSXSXSXSXSXSXSXSXSXSXSXSXSX;Xo.;.=.U.8X7X7X0XpXNXVXbXiX5XzXg.X.2.>.,.*.o.aXSXSXSXSXSXSXSXSXSXSXSXSXSXSXSXSXSXSXSXSXSXSXSXSXSXSXSXSX",
"SXSXSXSXSXSXSXSXSXSXSXSXDXSXSXSXSXSXSXSXSXSXSXSXSXSXSXSX;X .3.=.3.u.o.* 6.8.Z.g.w.= Q.xXf.@.<.>.,.-.o.9XSXAXSXSXSXSXSXSXSXSXSXSXSXSXSXSXDXSXSXSXSXSXSXSXSXSXSXSX",
"SXSXSXSXSXSXSXSXSXSXSXSXSXSXSXSXSXSXSXSXDXDXSXSXSXSXCXDX;X& 4.=.i.:.X. .% % :.7.d.5 Q.zXp.X.2.>.>.-.$.pXAXSXSXSXSXSXSXSXSXSXSXSXSXSXSXSXSXSXSXSXSXSXSXSXSXSXSXSX",
"SXSXSXSXSXSXSXSXSXSXSXSXSXSXSXSXSXSXSXSXSXSXSXSXSXSXDXDX;X .a.=.i.8Xu.% u.a.-.a.U.&.t.zXp.$.2.2.>.;.%.aXSXSXSXSXSXSXSXSXSXSXSXSXSXSXSXSXSXSXSXSXSXSXSXSXSXSXSXSX",
"SXSXSXSXSXSXSXSXSXSXSXSXSXSXSXSXSXSXSXSXSXSXSXSXSXSXDXDX;X5 a.$.>XCXVXd.* >XY.7.&.& t.zXu.$.2.2.2.;.5 aXSXAXSXSXSXSXSXSXSXSXSXSXSXSXSXSXSXSXSXSXSXSXSXSXSXSXSXSX",
"SXSXSXSXSXSXSXSXSXSXSXSXSXSXSXSXSXSXSXSXSXSXSXSXSXSXDXSX;X&.s.$.5X5XZ.cX5.% 9Xf.$.& r.cXq.X.2.4.2.:.$.iXSXSXSXSXSXSXSXSXSXSXSXSXSXSXSXSXSXSXSXSXSXSXSXSXSXSXSXSX",
"SXSXSXSXSXSXSXSXSXSXSXSXSXSXSXSXSXSXSXSXSXSXSXSXSXSXDXSX!.7.a.;.Y.cX* 8.p.- !.xX%.& 9.pXq.$.3.i.3.:.&.iXAXSXSXSXSXSXSXSXSXSXSXSXSXSXSXSXSXSXSXSXSXSXSXSXSXSXSXSX",
"SXSXSXSXSXSXSXSXSXSXSXSXSXSXSXSXSXDXSXSXSXSXSXSXSXDXDXSX~.w.7.7.5.xXCX4X;X^.lXVXw.$ w iXq.$.7.i.i.:.5 sXSXSXSXSXSXSXSXSXSXDXSXSXSXSXSXDXSXSXSXSXSXSXSXSXSXSXSXSX",
"SXSXSXSXSXSXSXSXSXSXSXSXDXSXSXSXSXSXSXSXSXSXSXSXSXSXSXAX6X8.:.U.7Xr.cXNXvXxXBXNXq.$ e eXe.5 q.i.q.&.5 sXSXAXSXSXSXSXSXSXSXSXSXSXSXSXSXSXSXSXSXSXSXSXSXSXSXSXSXSX",
"SXSXSXSXSXSXSXSXSXSXSXSXSXSXSXSXSXSXSXSXSXSXSXSXSXDXSXSX2X$ &.&.nXt.= !.dXdXxX1X5 5 6 qXF.5 q.s.q.q.w sXSXDXSXSXSXSXSXSXSXSXSXSXSXSXSXSXSXSXSXSXSXSXSXSXSXSXSXSX",
"SXSXSXSXSXSXSXSXSXSXSXSXSXSXSXSXSXSXSXSXSXSXSXSXSXSXDXSX~.X A.0XVX6X8.e e e q # & 5 $ ,XZ.4 q.e.e.0.w eXSXSXSXSXSXSXSXSXSXSXSXSXSXSXSXSXSXSXSXSXSXSXSXSXSXSXSXSX",
"SXSXSXSXSXSXSXSXSXSXSXSXSXSXSXSXSXSXSXSXSXSXSXSXSXSXDXSX/.r 0.5XAXAXvXzXiX1X1X>Xw.6 > S.^.6 e.F.e.0.y eXSXAXSXSXSXSXSXSXSXSXSXSXSXSXSXSXSXSXSXSXSXSXSXSXSXSXSXSX",
"SXSXSXSXSXSXSXSXSXSXSXSXSXSXSXSXSXSXSXSXSXSXSXSXSXSXDXDX.XL N.L ,XAXBXvXxXbXBXVX5X# > b.(.4 e.c.e.0.r fXAXAXSXSXSXSXSXSXSXSXSXSXSXSXSXSXSXSXSXSXSXSXSXSXSXSXSXSX",
"SXSXSXSXSXSXSXSXSXSXSXSXSXSXSXSXSXSXSXSXSXSXSXSXSXDXSXDX{.' U }.x.2X2X~.3X6XjXxXcXq > L /.r l.Z.c.0.r fXSXSXSXSXSXSXSXSXSXSXSXSXSXSXSXSXSXSXSXSXSXSXSXSXSXSXSXSX",
"SXSXSXSXSXSXSXSXSXSXSXSXSXSXSXSXSXDXSXSXSXSXSXDXSXSXDXDX{.' ' M.|.c.&.. @ * 5.p.f.6.> r /.u l.v.c.0.r wXSXAXSXSXSXSXSXSXSXSXSXSXSXSXSXSXSXSXSXSXSXSXSXSXSXSXSXSX",
"SXSXSXSXSXSXSXSXSXSXSXSXSXSXSXSXSXSXSXSXSXSXSXSXSXSXSXMX{ _ .XC.K.D.0.>Xd.6.* @ + o 4 7 (.z.j.N.x.P t fXAXSXSXSXSXSXSXSXSXSXSXSXSXSXSXSXSXSXSXSXSXSXSXSXSXSXSXSX",
"SXSXSXSXSXSXSXSXSXSXSXSXSXSXSXSXSXSXSXSXSXSXSXSXSXSXSXMX{ ` -X[.Q `.r.kXxXkXjX3X,Xt.> 7 W.N.L N.v.K t gXSXSXSXSXSXSXSXSXSXSXDXSXSXSXSXSXSXSXSXSXSXSXSXSXSXSXSXSX",
"SXSXSXSXSXSXSXSXSXSXSXSXSXSXSXSXSXSXSXSXSXSXSXSXSXDXSXMX{ ` -X%X) C.z.^.lXlXlXxXxXkX4 4 x.(.j.B.N.K t wXCXSXSXSXSXSXSXSXSXSXSXSXSXSXSXSXSXSXSXSXSXSXSXSXSXSXSXSX",
"SXSXSXSXSXSXSXSXSXSXSXSXSXSXSXSXSXSXSXSXSXSXSXSXSXSXSXMX{ ` [ &X[.Q x.y Z.g.~.2X6XzXt.4 u  Xx.V.m.K F wXSXSXSXSXSXSXSXSXSXSXSXSXSXSXSXSXSXSXSXSXSXSXSXSXSXSXSXSX",
"SXSXSXSXSXSXSXSXSXSXSXSXSXSXSXSXSXSXSXSXSXSXSXSXSXSXSXMX] _ [ %X#XE x.u eXe o * 5 8.6.6 t `.V.V.M.K F wXAXDXSXSXSXSXSXSXSXSXSXSXSXSXSXSXSXSXSXSXSXSXSXSXSXSXSXSX",
"SXSXSXSXSXSXSXSXSXSXSXSXSXSXSXSXSXSXSXSXSXSXSXSXSXSXDXMX] _ [ | *XQ m.t lX1X@ @ % %  .6 8 C.I.V.M.E F wXAXSXSXSXSXSXSXSXSXDXSXSXSXSXSXSXSXSXSXSXSXSXSXSXSXSXSXSX",
"SXSXSXSXSXSXSXSXSXSXSXSXSXSXSXSXSXSXSXSXSXSXSXSXSXSXSXDX{._ [ | =XW.! 7 y.xX1Xp.6.o.& O 7 n.|.M.M.E D tXDXSXSXSXSXSXSXSXSXSXSXSXSXSXSXSXSXSXSXSXSXSXSXSXSXSXSXSX",
"SXSXSXSXSXSXSXSXSXSXSXSXSXSXSXSXSXSXSXSXSXSXSXSXSXSXSXMXW.' [ | =X[.x.1 p jXlXkXdXgX6XZ., k.|.K.M.W B tXAXSXSXSXSXSXSXSXSXSXSXSXSXSXSXSXSXSXSXSXSXSXSXSXSXSXSXSX",
"SXSXSXSXSXSXSXSXSXSXSXSXSXSXSXSXSXSXAXSXSXSXSXSXSXSXAXDX[.~ } %X=X.X! < 2XxXdXdXlXlXvXxX4 u |.oXQ W D +XDXSXSXSXSXSXSXSXSXSXSXSXSXSXSXSXSXSXSXSXSXSXSXSXSXSXSXSX",
"SXSXSXSXSXSXSXSXSXSXSXSXSXSXSXSXSXSXSXSXSXSXSXSXSXSXSXZX[.  {.=X=XgXQ < 8.9.e 9.y.Q.,XzXS.8 D.XX( R D +XZXSXSXSXSXDXSXSXSXSXSXSXSXSXSXSXSXSXSXSXSXSXSXSXSXSXSXSX",
"SXSXSXSXSXSXSXSXSXSXSXSXSXSXSXSXSXSXSXSXSXSXSXSXSXSXDXDX'.x U #X*X*XG B ; # !.6X1XQ.e = 7.6 n.oXP.R D +XZXSXSXSXSXSXSXSXSXSXSXSXSXSXSXSXSXSXSXSXSXSXSXSXSXSXSXSX",
"SXSXSXSXSXSXSXSXSXSXSXSXSXSXSXSXSXSXSXSXSXSXSXSXSXSXDXAXK.l R J. XuXC B 1 c.bXkXlXBXlXZ.X 8 k.L.$XU N +XZXSXSXSXSXSXSXSXSXSXSXSXSXSXSXSXSXSXSXSXSXSXSXSXSXSXSXSX",
"SXSXSXSXSXSXSXSXSXSXSXSXSXSXSXSXSXSXSXSXSXSXSXSXSXSXSXZX`.k Y G.K.XXZ M < v.fXy.y.^.6XNXT.0.V.V.oXR m OXZXSXSXSXSXSXSXSXSXSXSXSXSXSXSXSXSXSXSXSXSXSXSXSXSXSXSXSX",
"SXSXSXSXSXSXSXSXSXSXSXSXSXSXSXSXSXSXSXSXSXSXSXSXSXSXDXZX_.k Y G.K.XXZ M < j.eXo . . # f.aX0.n.K.oXH.m OXZXSXSXSXSXSXSXSXSXSXSXSXSXSXSXSXSXSXSXSXSXSXSXSXSXSXSXSX",
"SXSXSXSXSXSXSXSXSXSXSXSXSXSXSXSXSXSXSXSXSXSXSXSXSXSXSXZXL.k Y G.K.uXS b 8 > eX2Xg.d.8.# 6.l.7 k.K._.m OXZXSXSXSXSXSXSXSXSXSXSXSXSXSXSXSXSXSXSXSXSXSXSXSXSXSXSXSX",
"SXSXSXSXSXSXSXSXSXSXSXSXSXSXSXSXSXSXSXSXSXSXSXSXSXSXSXZX_.k Y G.`.uX8 X 9 X ~.kXkXlXkXjX5X2X(.z.k.}.F @XZXSXSXSXSXSXSXSXSXSXSXSXSXSXSXSXSXSXSXSXSXSXSXSXSXSXSXSX",
"SXSXSXSXSXSXSXSXSXSXSXSXSXSXSXSXSXSXSXSXSXSXSXSXSXSXDXZXK.k Y G.}.tXu Y.>X5 y.jX1X3XdXlXNXAXAXCX0.B.K @XAXSXSXSXSXSXSXSXDXSXSXSXSXSXSXSXSXSXSXSXSXSXSXSXSXSXSXSX",
"SXSXSXSXSXSXSXSXSXSXSXSXSXSXSXSXSXSXSXSXSXSXSXSXSXSXDXZX_.k Y G.}.tXr rXpX* * 6.# = 9.Q.S.5XbXCXqXl.m.@XAXSXSXSXSXSXSXSXSXSXSXSXSXSXSXSXSXSXSXSXSXSXSXSXSXSXSXSX",
"SXSXSXSXSXSXSXSXSXSXSXSXSXSXSXSXSXSXSXSXSXSXSXSXSXSXSXZX'.k Y G.@XuX8 iX!.@ * @ * :X6X6X~.9.&.S.v.8 K tXAXDXSXSXSXSXSXSXSXSXSXSXSXSXSXSXSXSXSXSXSXSXSXSXSXSXSXSX",
"SXSXSXSXSXSXSXSXSXSXSXSXSXSXSXSXSXSXSXSXSXSXSXSXSXSXSXZX'.j R H.uXqX7 qX~.o # * 3XlXdXlXBXBXt.0.k.2 S yXAXSXSXSXSXSXSXSXSXSXSXSXSXSXSXSXSXSXSXSXSXSXSXSXSXSXSXSX",
"SXSXSXSXSXSXSXSXSXSXSXSXSXSXSXSXSXSXSXSXSXSXSXSXDXSXSXFX'.j Y J.yX X1 B.jXw * 1XdX3XkX3XeXVXnXk.K.n.J tXAXDXSXSXSXSXDXSXSXSXSXSXSXSXSXSXSXSXSXSXSXSXSXSXSXSXSXSX",
"SXSXSXSXSXSXSXSXSXSXSXSXSXSXSXSXSXSXSXSXSXSXSXSXSXSXSXZX'.j Y L.yXC.S 2 sXjX3XdXgXdX:X= $ 4XAX/.k.W J tXAXSXSXSXSXSXSXSXSXSXSXSXSXSXSXSXSXSXSXSXSXSXSXSXSXSXSXSX",
"SXSXSXSXSXSXSXSXSXSXSXSXSXSXSXSXSXSXSXSXSXSXSXSXSXSXSXDX'.l Y $XhXW N < L kXjXgXdX6Xe @ 6 8 VXkXK M.J @XZXSXSXSXSXSXSXSXSXSXSXSXSXSXSXSXSXSXSXSXSXSXSXSXSXSXSXSX",
"SXSXSXSXSXSXSXSXSXSXSXSXSXSXSXSXSXSXSXSXSXSXSXSXSXSXSXZX'.b U oXyXU A M : t ,X2X<X&.X 8 S 1 mXnXK H.J @XAXSXSXSXSXSXSXSXSXSXSXSXSXSXSXSXSXSXSXSXSXSXSXSXSXSXSXSX",
"SXSXSXSXSXSXSXSXSXSXSXSXSXSXSXSXSXSXSXSXSXSXSXSXSXSXDXZX'.l U uX+XJ M M B : ; > ; ; < S S 8 nXCXm.K.B @XZXSXSXSXSXSXSXSXSXDXSXSXSXSXSXSXSXSXSXSXSXSXSXSXSXSXSXSX",
"SXSXSXSXSXSXSXSXSXSXSXSXSXSXSXSXSXSXSXSXSXSXSXSXSXSXSXZX'.l U yXtXC.J m n b 2     b M B 2 l.nXVXN.K.m OXZXSXSXSXSXSXSXSXSXSXSXSXSXSXSXSXSXSXSXSXSXSXSXSXSXSXSXSX",
"SXSXSXSXSXSXSXSXSXSXSXSXSXSXSXSXSXSXSXSXSXSXSXSXSXSXAXZX'.l Q mXmXyX|.J.Q G N k b g g g B : 8 v.N.K.b +XZXSXSXSXSXSXSXSXSXSXSXSXSXSXSXSXSXSXSXSXSXSXSXSXSXSXSXSX",
"SXSXSXSXSXSXSXSXSXSXSXSXSXSXSXSXSXSXSXSXSXSXSXSXSXSXSXFX'.l W oX}.J.W R Q Q Q ! J N z g M S S < n.H.n OXZXSXSXSXSXSXSXSXSXSXSXSXSXSXSXSXSXSXSXSXSXSXSXSXSXSXSXSX",
"SXSXSXSXSXSXSXSXSXSXSXSXSXSXSXSXSXSXSXSXSXSXSXSXSXSXSXZX'.k T ( ( G M k k l m D U W Y M g A n.H.I.W n OXZXSXSXSXSXSXSXSXSXSXSXSXSXSXSXSXSXSXSXSXSXSXSXSXSXSXSXSX",
"SXSXSXSXSXSXSXSXSXSXSXSXSXSXSXSXSXSXSXSXSXSXSXSXSXSXSXZX'.j Y P.( H v f f z h h h z C R R G I H.L.Y n OXZXAXSXSXSXSXSXSXSXSXSXSXSXSXSXSXSXSXSXSXSXSXSXSXSXSXSXSX",
"SXSXSXSXSXSXSXSXSXSXSXSXSXSXSXSXSXSXSXSXSXSXSXSXSXSXDXZX'.l T ( ^ Z v c s s s a s f g z C P.) ( L.Y n OXZXSXSXSXSXSXSXSXSXSXSXSXSXSXSXSXSXSXSXSXSXSXSXSXSXSXSXSX",
"SXSXSXSXSXSXSXSXSXSXSXSXSXSXSXSXSXSXSXSXSXSXSXSXSXSXDXZX].k T ( ^ Z v c s s s a s f f f d A P.$XL.I n OXAXDXSXSXSXSXSXSXSXSXSXSXSXSXSXSXSXSXSXSXSXSXSXSXSXSXSXSX",
"SXSXSXSXSXSXSXSXSXSXSXSXSXSXSXSXSXSXSXSXSXSXSXSXSXSXSXZX].g T ^ / Z c c s s a a d c d s c V T $XL.G n OXZXSXSXSXSXSXSXSXSXSXSXSXSXSXSXSXSXSXSXSXSXSXSXSXSXSXSXSX",
"SXSXSXSXSXSXSXSXSXSXSXSXSXSXSXSXSXSXSXSXSXSXSXSXSXSXSXZX].k T ^ / Z c s s s s a z c c s c V H ^ / H n OXZXSXSXSXSXSXSXSXSXSXSXSXSXSXSXSXSXSXSXSXSXSXSXSXSXSXSXSX",
"SXSXSXSXSXSXSXSXSXSXSXSXSXSXSXSXSXSXSXSXSXSXSXSXSXSXSXZX'.l T ^ / Z v c s s a a d c s s c v H ^ / T n @XZXSXSXSXSXSXSXSXSXSXSXSXSXSXSXSXSXSXSXSXSXSXSXSXSXSXSXSX",
"SXSXSXSXSXSXSXSXSXSXSXSXSXSXSXSXSXSXSXSXSXSXSXSXSXSXSXZX.Xm J ( / Z z s s s a a v d s s c v G / / G F *XZXSXSXSXSXSXSXSXSXSXSXSXSXSXSXSXSXSXSXSXSXSXSXSXSXSXSXSX",
"SXSXSXSXSXSXSXSXSXSXSXSXSXSXSXSXSXSXSXSXSXSXSXSXSXSXSXSXZX/.W.J.Q G N z k j j z n l z j z N G Q Q !  XFXDXSXSXSXSXSXSXSXSXSXSXSXSXSXSXSXSXSXSXSXSXSXSXSXSXSXSXSX",
"SXSXSXSXSXSXSXSXSXSXSXSXSXSXSXSXSXSXSXSXSXSXSXSXSXSXSXDXlX' p E.W.W.W.[.W.P F 0 0 0 L B.[.W.R.P i i E.FXSXSXSXSXSXSXSXSXSXSXSXSXSXSXSXSXSXSXSXSXSXSXSXSXSXSXSXSX",
"SXSXSXSXSXSXSXSXSXSXSXSXSXSXSXSXSXSXSXSXSXSXSXSXSXSXSXSXDXgXR.R.E.R.).gXrXE.P p i r ' E.).).R.R.R.).gXFXSXSXSXSXSXSXSXSXSXSXSXSXSXSXSXSXSXSXSXSXSXSXSXSXSXSXSXSX"
};