/* XPM */
static char *_fc8f5388782468fc264190a50836404K7CooEGDLnIUO1w3[] = {
/* columns rows colors chars-per-pixel */
"64 64 253 2 ",
"   c #000000",
".  c #0A0203",
"X  c #000902",
"o  c #01020B",
"O  c #0A020B",
"+  c #010A0A",
"@  c #0B0809",
"#  c #000714",
"$  c #0E130D",
"%  c #0C2715",
"&  c #03152B",
"*  c #061B3B",
"=  c #181E36",
"-  c #1C3C28",
";  c #152A3C",
":  c #0D353E",
">  c #263D37",
",  c #2D3231",
"<  c #251D1C",
"1  c #403B35",
"2  c #1D452C",
"3  c #1F4931",
"4  c #274737",
"5  c #334A3C",
"6  c #29553B",
"7  c #3E5C3A",
"8  c #49453B",
"9  c #40513E",
"0  c #021D44",
"q  c #0A2647",
"w  c #172C46",
"e  c #1C3249",
"r  c #0E2B54",
"t  c #0A325E",
"y  c #173459",
"u  c #182C55",
"i  c #263645",
"p  c #353E4B",
"a  c #2B345A",
"s  c #0A3769",
"d  c #153967",
"f  c #043C7B",
"g  c #093875",
"h  c #133D74",
"j  c #173D79",
"k  c #082D61",
"l  c #243D66",
"z  c #155647",
"x  c #2A4A48",
"c  c #354848",
"v  c #375242",
"b  c #394756",
"n  c #275358",
"m  c #287A4B",
"M  c #377759",
"N  c #2F7554",
"B  c #18446A",
"V  c #09437B",
"C  c #174579",
"Z  c #1D507D",
"A  c #2A476B",
"S  c #394A69",
"D  c #2A5567",
"F  c #3E556A",
"G  c #254A75",
"H  c #2A5479",
"J  c #385A79",
"K  c #384E75",
"L  c #3B786A",
"P  c #346A69",
"I  c #1A7C41",
"U  c #494745",
"Y  c #485A59",
"T  c #445154",
"R  c #437A59",
"E  c #4F6C59",
"W  c #4B5C75",
"Q  c #515D66",
"!  c #4A6B68",
"~  c #477964",
"^  c #547767",
"/  c #4A6776",
"(  c #586A79",
")  c #487573",
"_  c #5A757B",
"`  c #53676A",
"'  c #657776",
"]  c #6E7372",
"[  c #847C70",
"{  c #18963D",
"}  c #10963D",
"|  c #1A8948",
" . c #1B9445",
".. c #1D944C",
"X. c #189847",
"o. c #1B9751",
"O. c #268A4A",
"+. c #23934C",
"@. c #239648",
"#. c #2B8C52",
"$. c #2B8653",
"%. c #3D8D5C",
"&. c #358856",
"*. c #269755",
"=. c #36955A",
"-. c #378C4B",
";. c #3E8768",
":. c #3B9962",
">. c #2BA659",
",. c #438857",
"<. c #549250",
"1. c #789555",
"2. c #478367",
"3. c #568A6C",
"4. c #479767",
"5. c #498575",
"6. c #598875",
"7. c #589775",
"8. c #509671",
"9. c #6A8B7C",
"0. c #65967A",
"q. c #749A73",
"w. c #4BA26C",
"e. c #54A574",
"r. c #65A479",
"t. c #73A367",
"y. c #7EA854",
"u. c #87987B",
"i. c #808179",
"p. c #8AA96E",
"a. c #AAB674",
"s. c #ABC370",
"d. c #E9E376",
"f. c #083C85",
"g. c #143F83",
"h. c #0B4288",
"j. c #134589",
"k. c #1A4885",
"l. c #184F92",
"z. c #244C88",
"x. c #2A5888",
"c. c #335586",
"v. c #255497",
"b. c #335998",
"n. c #214B93",
"m. c #3B6388",
"M. c #3B6394",
"N. c #205CA2",
"B. c #3D6EAB",
"V. c #486989",
"C. c #587286",
"Z. c #456A94",
"A. c #4B7394",
"S. c #587596",
"D. c #556A8C",
"F. c #647A94",
"G. c #64748A",
"H. c #5078A8",
"J. c #877D85",
"K. c #6E8689",
"L. c #788A87",
"P. c #6B9B84",
"I. c #779889",
"U. c #759896",
"Y. c #718794",
"T. c #53A882",
"R. c #57AF87",
"E. c #69A589",
"W. c #75A689",
"Q. c #78A894",
"!. c #70B793",
"~. c #5783B5",
"^. c #6686AA",
"/. c #768AA4",
"(. c #7B96B6",
"). c #7AA8AE",
"_. c #4C8185",
"`. c #78C498",
"'. c #6591C6",
"]. c #938B83",
"[. c #86999A",
"{. c #9B9797",
"}. c #89918A",
"|. c #A5988B",
" X c #A79C94",
".X c #93A488",
"XX c #87A797",
"oX c #95A996",
"OX c #B1A69C",
"+X c #8598A9",
"@X c #929CA7",
"#X c #939CB2",
"$X c #879AB6",
"%X c #8AA5A6",
"&X c #98A7A6",
"*X c #8DA5B8",
"=X c #94A6BB",
"-X c #98B2B7",
";X c #90B5A6",
":X c #AAA6A5",
">X c #A7B4B9",
",X c #B4B6B7",
"<X c #B1AEAF",
"1X c #C5BAB9",
"2X c #C4B6AE",
"3X c #95C3B0",
"4X c #ACC5B7",
"5X c #B5CEB5",
"6X c #BBD189",
"7X c #CDD698",
"8X c #E4DC8B",
"9X c #DBE798",
"0X c #EFE88E",
"qX c #C8C5B8",
"wX c #D3C8B4",
"eX c #E7DCAF",
"rX c #FAF5A8",
"tX c #F0F1B6",
"yX c #D2E2BE",
"uX c #8AA8C3",
"iX c #94A8C6",
"pX c #99AFD2",
"aX c #AABAD7",
"sX c #ABB7C8",
"dX c #C1BCC2",
"fX c #B4C5C9",
"gX c #BDDBD9",
"hX c #AFCAD1",
"jX c #B5CDE9",
"kX c #B5E0C2",
"lX c #D6CBC5",
"zX c #CED5C6",
"xX c #DBD5C8",
"cX c #C5C9D4",
"vX c #CFD1D2",
"bX c #E4DBD7",
"nX c #EEDBCC",
"mX c #D9E5D3",
"MX c #EBE1D9",
"NX c #FAEFD1",
"BX c #C9D6EC",
"VX c #DBDCE7",
"CX c #C7D8F7",
"ZX c #D8E4EA",
"AX c #CCE5FC",
"SX c #DCF7FF",
"DX c #D8EDF3",
"FX c #F6EBE5",
"GX c #E7ECFD",
"HX c #EBFEFF",
"JX c #E7FAFB",
"KX c #F9FCFB",
"LX c #F0EEEB",
/* pixels */
"                                    o             O     o .     o o . . . .     o O O     o                                     ",
"                                o   o .     .   .     @ , 1 U 8 p U < . . .     O o . X     O o                                 ",
"                                        X X . . . 8 :XbXFXFXMXFXKXFXFXFXqX|.U X o O .   X   o o                                 ",
"                                  .     .     < ].bXKXFXnXlX1X1XFXMXFXNXFXKXFX<X< .       X   o                                 ",
"                                      X     o ] :X{.lX1X X2X2X|.1XlXnXNXMXxXMXLXJ.O . .                                         ",
"                                      . . . @ ].@X XlX1X2X1XOX2X2X X|.xXxXlXqX,X] o .   X . X                                   ",
"                                  .         X c @XVXcX1X1X1XbXdXOXOX{.:X{.,XfX@Xi o     X . .                                   ",
"                                    .   X   # ; ; ( @XcXVXVXVXVXVXVXvXcXVXcX@Xp = #   X     X                                   ",
"                                    o     o & e u 0 w a ( /.$X*XiX+X#X$X/.K 0 q w & O O   X o                                   ",
"                                          & q r k u r u u 0 0 0 r 0 q * 0 u A l u 0 # o     .                                   ",
"                                    O   o & r k s j d z.c.l k d k k d s g z.c.j d u & + o O O o                                 ",
"                                +       o q d h g g k z.b.j g g f s s g g g.b.n.k t ; o o                                       ",
"                                        # ; s g f.f.g.b.b.g g f g V g g h.h.n.g.C k w + X   O                                   ",
"                                  + .   o w Z B.l.f.l.b.z.g f.f s f V V f.f.n.H.B.G q o o o                                     ",
"                                        # e s V N.l.j.n.C k.j.h.~.l.V V h.f.l.v.j t q +   O . .                                 ",
"                                o     X + e s f f.f.g.j C C k.l.~.l.V V f.f.f.f.h s : O o o                                     ",
"                                        # e B V g.g.j h s h C ~.x.V z.f f.f.j.j V B ; o o     X                                 ",
"                                o       + w B V g.j v.G x.B A.'.H x.k.V j.f.j k.C B ; o o                                       ",
"                                o       @ ; B Z g.j D.H.Z.m.V.(.x.A.C j l.C k.h C B w o # o                                     ",
"                                .       o : B Z Z.c.Z.H.^.uXS.=X^.c.C C C C M.m.C B w o o O                                     ",
"                                O       o e G H G F.^.iXiXiX>X@XpXS.A c.B G A.H B B e o O o .                                   ",
"                                o   o   o i J H J V.F.$X=X@XoXoXXXpXK G d A.V.J G A e o o o                                     ",
"                                .   o   o i J J V.C.Y.#XsX<X4XyX&X[.jXD.(.V.D Z.G A e o o   .                                   ",
"                                    o o o p / J Y Y.+X{.vXlXeXyXyX] $XpXS.H J A.K G i o                                         ",
"                                .     o o S D.S.' Y.@X,XnXeXNXtX7Xu.b S K l H S.c.S > o   +                                     ",
"                                      + o T /./.K.&X,X5XwXtXNXrX6X1.' D.a S.G ^.J K i       . +                                 ",
"                                O       o p +X(.&X&X>XqX7XrXtXrXa.p.' W S.JXZ.^.S.T i + X X                                     ",
"                                      X   b +X-X%X[.sXzXeXrXrXtXs.p.4XaX/.pXA.V.$Xb >                                           ",
"                                .   X   o b G.+X[.XXfXqX8X0XrX9Xp.1.LX+XpX$XV.K sXQ , +                                         ",
"                                        o c Q _ L.%X>X5X0X0X0X7Xp.p.JX( BXS.H / +X{.> O o   +                                   ",
"                                o       o c Q ( _ %XfXMXd.d.0Xa.1.y.HX-XBX*XD.Y.L.<XQ O o o o .                                 ",
"                                .     X   i / ` ' %XfXmX8Xd.9X1.p.7 4XBXaXHXuX_ &X XY o o O                                     ",
"                                o o   X o > / ! _ ).+XzXtX7Xp.<..XI.G.HX/.AXK.K.hX^ c o o o                                     ",
"                                .   o   X > ! ( ! ! ` L.zX6X1.q.oXZXF HX/.S +XZX%XY c O o o                                     ",
"                                    +   X > ! ! ^ ' _ +X-XP.` [.jXJXW AX%XC.-XfXI.Y c +   .                                     ",
"                                X     . X T L.9.I.;XsX*XC.` ( BXG.GX/.C.C.-XcXU.9.Y c X   o                                     ",
"                                  X +   o ] ZXmXfX;XF J D.e DXGXu CXaXn -XgXI.XXW.! 5 X   .                                     ",
"                                      o o Y :X' ` ( ).J c.G.[.KXu iXpX/ gX;X9.U.XX^ v X     .                                   ",
"                                    o o o T >X( / jXSXB uXHX,XGXD.S S.-XhXI.I.9.6.Y 5 X   .                                     ",
"                                  O     . > &X' /.jXr ^.hX/.GXVXiXu %XgX0.9.^ 3.3.! v X     o                                   ",
"                                  o .     5 XX_ -XiX* iXCXK BXjXaXi hX3X~ 3.0.^ ) ! x X   .                                     ",
"                                o   . . X - 0.0.Q.HXF.W DXD.hX/.D./.hXQ.q.^ 6.5.5.~ x X                                         ",
"                                  o . . X - 6.W.) HXHX#XjX/.pXy / 3XP.3.0.R ~ ~ ) L v +   .                                     ",
"                                  o .   X 2 2.Q.n %XHXDXCXaXH.A U.3X3.W.Q.7.E.2.2.M x +   .                                     ",
"                                  .       > ~ Q.L e ) GXaXBXD L !.Q.3X0.W.8.8.8.;.M 6 X . .                                     ",
"                                .       X > R R.;.5.x CX#XAXP _.3X0.0.2.E.0.%.%.%.M 6 X   .                                     ",
"                                      X X - R P.;.D / JXW AXL E.r.3.0.E.P.!.,.e.%.M 6 X   o   X                                 ",
"                                      X X 2 M 7.P _.SXjXD *XM ).,.7.2.7.8.!.2.4.=.N 3 @                                         ",
"                                  o   X X 3 N T.P ).SXL L z _.R.$.%.%.e.4.4.=.w.$.m 6 X   +                                     ",
"                                o         2 $.T.N P _.P L z !.4.$.=.&.w.=.=.=.&.2.3.E X X                                       ",
"                                  o   . X 2 N T.T.L ;.8.;.M !.&.&.-.#.=.=.O.=.,.7.W.E   X   . .                                 ",
"                                      X   2 $.w.T.T.R.R.R.`.R.$.&.O.+...*.#.=.r.kX4Xv X X   . .                                 ",
"                                        X 2 m *.m *.| | *.w.:.O.#.#.o.o.o.*.$.XX5X5X6 X X     X                                 ",
"                                        X 2 $.O.| o.@.@.o.o.+.+.+.+.o.o.X.*.I `.DXkX7 X X                                       ",
"                                X       X 2 $. .*.|  .{ } ..+.+.+...X.X. ...} `.5XXXv X X                                       ",
"                                      X   2 m @.o.o.} X.X.X.+.O.@. .X.X.X.X. .e.`.3.5 X . o   X                                 ",
"                                . . . X   % =.| X.X.} } X.X... .@.{ @.{ { { ..+.:.N >   X                                       ",
"                                o @     X X 6 w.#.@.@.{ X.o. .*. . .@.{ @.@.O.O.m R $ X     o                                   ",
"                                    X   o o X E r.,.-.O.X.o.*.X.X.X.{ @.@.O.,.0.q.-   . o   +                                   ",
"                                X       O . X % q.oXt.8.4.#.#.=.#.-.-.w.e.r.p..X9   @ . O                                       ",
"                                .       O . X   < [ oX.X}.}.u.q.u.u.u.u.u.|.u.E     +   X                                       ",
"                                  . X   . O     . @ 8 [ u.|. X XOX|. X|.u.[ 8 . . X   X     O .                                 ",
"                                . .   X o   X X   o . . < 8 8 8 8 8 U 1 < . . .     X   o .   .                                 ",
"                                .   X X   X   X       .     . X X @ . . . . . . . o   X O     .                                 "
};